<svg width="296" height="83" viewBox="0 0 296 83" fill="none" xmlns="http://www.w3.org/2000/svg">
<g filter="url(#filter0_d_21_76)">
<path d="M79 37.5C79 58.2107 62.2107 75 41.5 75C20.7893 75 4 58.2107 4 37.5C4 16.7893 20.7893 0 41.5 0C62.2917 6.82624 48 35.3679 79 37.5Z" fill="#312E81"/>
</g>
<path d="M38.792 24.512V50H30.8V24.512H38.792ZM69.5096 29.552C72.1016 29.552 74.1056 30.332 75.5216 31.892C76.9616 33.452 77.6816 35.564 77.6816 38.228V50H69.7256V39.236C69.7256 38.372 69.4616 37.7 68.9336 37.22C68.4296 36.716 67.7456 36.464 66.8816 36.464C65.9936 36.464 65.2976 36.716 64.7936 37.22C64.2896 37.7 64.0376 38.372 64.0376 39.236V50H56.0816V39.236C56.0816 38.372 55.8176 37.7 55.2896 37.22C54.7856 36.716 54.1016 36.464 53.2376 36.464C52.3496 36.464 51.6536 36.716 51.1496 37.22C50.6456 37.7 50.3936 38.372 50.3936 39.236V50H42.4016V29.696H50.3936V32.432C50.9696 31.568 51.7496 30.872 52.7336 30.344C53.7416 29.816 54.9176 29.552 56.2616 29.552C57.7256 29.552 59.0216 29.876 60.1496 30.524C61.2776 31.148 62.1776 32.036 62.8496 33.188C63.5936 32.132 64.5416 31.268 65.6936 30.596C66.8456 29.9 68.1176 29.552 69.5096 29.552ZM89.1358 32.468C89.6398 31.532 90.3598 30.8 91.2958 30.272C92.2558 29.72 93.3958 29.444 94.7158 29.444C96.2998 29.444 97.7278 29.864 98.9998 30.704C100.272 31.52 101.268 32.72 101.988 34.304C102.732 35.864 103.104 37.712 103.104 39.848C103.104 41.984 102.732 43.844 101.988 45.428C101.268 46.988 100.272 48.188 98.9998 49.028C97.7278 49.844 96.2998 50.252 94.7158 50.252C93.3958 50.252 92.2558 49.988 91.2958 49.46C90.3598 48.908 89.6398 48.164 89.1358 47.228V59.72H81.1438V29.696H89.1358V32.468ZM95.0038 39.848C95.0038 38.768 94.7278 37.928 94.1758 37.328C93.6238 36.728 92.9158 36.428 92.0518 36.428C91.1878 36.428 90.4798 36.728 89.9277 37.328C89.3758 37.928 89.0998 38.768 89.0998 39.848C89.0998 40.928 89.3758 41.768 89.9277 42.368C90.4798 42.968 91.1878 43.268 92.0518 43.268C92.9158 43.268 93.6238 42.968 94.1758 42.368C94.7278 41.768 95.0038 40.928 95.0038 39.848ZM104.533 39.848C104.533 37.712 104.893 35.864 105.613 34.304C106.357 32.72 107.365 31.52 108.637 30.704C109.909 29.864 111.337 29.444 112.921 29.444C114.241 29.444 115.381 29.72 116.341 30.272C117.301 30.8 118.033 31.532 118.537 32.468V29.696H126.493V50H118.537V47.228C118.033 48.164 117.301 48.908 116.341 49.46C115.381 49.988 114.241 50.252 112.921 50.252C111.337 50.252 109.909 49.844 108.637 49.028C107.365 48.188 106.357 46.988 105.613 45.428C104.893 43.844 104.533 41.984 104.533 39.848ZM118.537 39.848C118.537 38.768 118.261 37.928 117.709 37.328C117.157 36.728 116.449 36.428 115.585 36.428C114.721 36.428 114.013 36.728 113.461 37.328C112.909 37.928 112.633 38.768 112.633 39.848C112.633 40.928 112.909 41.768 113.461 42.368C114.013 42.968 114.721 43.268 115.585 43.268C116.449 43.268 117.157 42.968 117.709 42.368C118.261 41.768 118.537 40.928 118.537 39.848ZM129.001 39.848C129.001 37.736 129.433 35.9 130.297 34.34C131.185 32.756 132.409 31.544 133.969 30.704C135.553 29.864 137.353 29.444 139.369 29.444C142.009 29.444 144.229 30.188 146.029 31.676C147.853 33.164 149.005 35.228 149.485 37.868H141.025C140.713 36.812 140.101 36.284 139.189 36.284C138.541 36.284 138.025 36.584 137.641 37.184C137.281 37.784 137.101 38.672 137.101 39.848C137.101 41.024 137.281 41.912 137.641 42.512C138.025 43.112 138.541 43.412 139.189 43.412C140.101 43.412 140.713 42.884 141.025 41.828H149.485C149.005 44.468 147.853 46.532 146.029 48.02C144.229 49.508 142.009 50.252 139.369 50.252C137.353 50.252 135.553 49.832 133.969 48.992C132.409 48.152 131.185 46.952 130.297 45.392C129.433 43.808 129.001 41.96 129.001 39.848ZM164.655 43.196V50H161.631C156.063 50 153.279 47.228 153.279 41.684V36.356H150.759V29.696H153.279V24.8H161.271V29.696H164.583V36.356H161.271V41.828C161.271 42.308 161.379 42.656 161.595 42.872C161.835 43.088 162.219 43.196 162.747 43.196H164.655ZM190.16 46.148H181.664L180.404 50H172.016L181.34 24.512H190.556L199.844 50H191.42L190.16 46.148ZM188.216 40.136L185.912 33.044L183.608 40.136H188.216ZM232.475 29.696L227.651 50H218.651L216.203 38.552L213.611 50H204.611L199.823 29.696H207.743L209.435 42.044L212.063 29.696H220.595L223.367 42.188L225.095 29.696H232.475ZM233.099 39.848C233.099 37.712 233.459 35.864 234.179 34.304C234.923 32.72 235.931 31.52 237.203 30.704C238.475 29.864 239.903 29.444 241.487 29.444C242.807 29.444 243.947 29.72 244.907 30.272C245.867 30.8 246.599 31.532 247.103 32.468V29.696H255.059V50H247.103V47.228C246.599 48.164 245.867 48.908 244.907 49.46C243.947 49.988 242.807 50.252 241.487 50.252C239.903 50.252 238.475 49.844 237.203 49.028C235.931 48.188 234.923 46.988 234.179 45.428C233.459 43.844 233.099 41.984 233.099 39.848ZM247.103 39.848C247.103 38.768 246.827 37.928 246.275 37.328C245.723 36.728 245.015 36.428 244.151 36.428C243.287 36.428 242.579 36.728 242.027 37.328C241.475 37.928 241.199 38.768 241.199 39.848C241.199 40.928 241.475 41.768 242.027 42.368C242.579 42.968 243.287 43.268 244.151 43.268C245.015 43.268 245.723 42.968 246.275 42.368C246.827 41.768 247.103 40.928 247.103 39.848ZM266.64 33.44C267.456 32.264 268.452 31.328 269.628 30.632C270.804 29.912 272.028 29.552 273.3 29.552V38.084H271.032C269.52 38.084 268.404 38.348 267.684 38.876C266.988 39.404 266.64 40.34 266.64 41.684V50H258.648V29.696H266.64V33.44ZM295.108 39.668C295.108 40.22 295.072 40.748 295 41.252H282.148C282.268 43.004 283 43.88 284.344 43.88C285.208 43.88 285.832 43.484 286.216 42.692H294.676C294.388 44.132 293.776 45.428 292.84 46.58C291.928 47.708 290.764 48.608 289.348 49.28C287.956 49.928 286.42 50.252 284.74 50.252C282.724 50.252 280.924 49.832 279.34 48.992C277.78 48.152 276.556 46.952 275.668 45.392C274.804 43.808 274.372 41.96 274.372 39.848C274.372 37.736 274.804 35.9 275.668 34.34C276.556 32.756 277.78 31.544 279.34 30.704C280.924 29.864 282.724 29.444 284.74 29.444C286.756 29.444 288.544 29.864 290.104 30.704C291.688 31.52 292.912 32.696 293.776 34.232C294.664 35.768 295.108 37.58 295.108 39.668ZM287.008 37.76C287.008 37.088 286.792 36.584 286.36 36.248C285.928 35.888 285.388 35.708 284.74 35.708C283.324 35.708 282.496 36.392 282.256 37.76H287.008Z" fill="#EAB308"/>
<defs>
<filter id="filter0_d_21_76" x="0" y="0" width="83" height="83" filterUnits="userSpaceOnUse" color-interpolation-filters="sRGB">
<feFlood flood-opacity="0" result="BackgroundImageFix"/>
<feColorMatrix in="SourceAlpha" type="matrix" values="0 0 0 0 0 0 0 0 0 0 0 0 0 0 0 0 0 0 127 0" result="hardAlpha"/>
<feOffset dy="4"/>
<feGaussianBlur stdDeviation="2"/>
<feComposite in2="hardAlpha" operator="out"/>
<feColorMatrix type="matrix" values="0 0 0 0 0 0 0 0 0 0 0 0 0 0 0 0 0 0 0.25 0"/>
<feBlend mode="normal" in2="BackgroundImageFix" result="effect1_dropShadow_21_76"/>
<feBlend mode="normal" in="SourceGraphic" in2="effect1_dropShadow_21_76" result="shape"/>
</filter>
</defs>
</svg>
